<svg width="112" height="19" viewBox="0 0 112 19" fill="none" xmlns="http://www.w3.org/2000/svg">
<rect opacity="0.1" width="112" height="19" rx="2" fill="url(#paint0_linear)"/>
<path d="M41.5175 11.52C41.6908 11.78 41.9108 11.9733 42.1775 12.1C42.4508 12.22 42.7308 12.28 43.0175 12.28C43.1775 12.28 43.3408 12.2567 43.5075 12.21C43.6741 12.1567 43.8241 12.08 43.9575 11.98C44.0975 11.88 44.2108 11.7567 44.2975 11.61C44.3841 11.4633 44.4275 11.2933 44.4275 11.1C44.4275 10.8267 44.3408 10.62 44.1675 10.48C43.9941 10.3333 43.7775 10.2133 43.5175 10.12C43.2641 10.02 42.9841 9.92667 42.6775 9.84C42.3775 9.74667 42.0975 9.62 41.8375 9.46C41.5841 9.3 41.3708 9.08667 41.1975 8.82C41.0241 8.54667 40.9375 8.18 40.9375 7.72C40.9375 7.51333 40.9808 7.29333 41.0675 7.06C41.1608 6.82667 41.3041 6.61333 41.4975 6.42C41.6908 6.22667 41.9375 6.06667 42.2375 5.94C42.5441 5.80667 42.9108 5.74 43.3375 5.74C43.7241 5.74 44.0941 5.79333 44.4475 5.9C44.8008 6.00667 45.1108 6.22333 45.3775 6.55L44.5975 7.26C44.4775 7.07333 44.3075 6.92333 44.0875 6.81C43.8675 6.69667 43.6175 6.64 43.3375 6.64C43.0708 6.64 42.8475 6.67667 42.6675 6.75C42.4941 6.81667 42.3541 6.90667 42.2475 7.02C42.1408 7.12667 42.0641 7.24333 42.0175 7.37C41.9775 7.49667 41.9575 7.61333 41.9575 7.72C41.9575 8.02 42.0441 8.25 42.2175 8.41C42.3908 8.57 42.6041 8.7 42.8575 8.8C43.1175 8.9 43.3975 8.99 43.6975 9.07C44.0041 9.15 44.2841 9.26333 44.5375 9.41C44.7975 9.55 45.0141 9.74333 45.1875 9.99C45.3608 10.23 45.4475 10.5633 45.4475 10.99C45.4475 11.33 45.3808 11.6367 45.2475 11.91C45.1208 12.1833 44.9475 12.4133 44.7275 12.6C44.5075 12.7867 44.2475 12.93 43.9475 13.03C43.6475 13.13 43.3275 13.18 42.9875 13.18C42.5341 13.18 42.1041 13.1 41.6975 12.94C41.2908 12.78 40.9675 12.5333 40.7275 12.2L41.5175 11.52ZM50.8341 13H49.9341V12.27H49.9141C49.8008 12.5233 49.6041 12.73 49.3241 12.89C49.0441 13.0433 48.7208 13.12 48.3541 13.12C48.1208 13.12 47.9008 13.0833 47.6941 13.01C47.4874 12.9433 47.3041 12.8367 47.1441 12.69C46.9908 12.5433 46.8674 12.3567 46.7741 12.13C46.6808 11.8967 46.6341 11.6233 46.6341 11.31V8.26H47.5341V11.06C47.5341 11.28 47.5641 11.47 47.6241 11.63C47.6841 11.7833 47.7641 11.91 47.8641 12.01C47.9641 12.1033 48.0774 12.1733 48.2041 12.22C48.3374 12.26 48.4741 12.28 48.6141 12.28C48.8008 12.28 48.9741 12.25 49.1341 12.19C49.2941 12.13 49.4341 12.0367 49.5541 11.91C49.6741 11.7767 49.7674 11.61 49.8341 11.41C49.9008 11.21 49.9341 10.9733 49.9341 10.7V8.26H50.8341V13ZM55.5807 9.52C55.4141 9.34667 55.2374 9.21667 55.0507 9.13C54.8707 9.03667 54.6541 8.99 54.4007 8.99C54.1541 8.99 53.9374 9.03667 53.7507 9.13C53.5707 9.21667 53.4174 9.34 53.2907 9.5C53.1707 9.65333 53.0774 9.83333 53.0107 10.04C52.9507 10.24 52.9207 10.45 52.9207 10.67C52.9207 10.89 52.9574 11.1 53.0307 11.3C53.1041 11.4933 53.2074 11.6633 53.3407 11.81C53.4741 11.9567 53.6341 12.0733 53.8207 12.16C54.0074 12.24 54.2174 12.28 54.4507 12.28C54.7041 12.28 54.9207 12.2367 55.1007 12.15C55.2807 12.0567 55.4474 11.9233 55.6007 11.75L56.2407 12.39C56.0074 12.65 55.7341 12.8367 55.4207 12.95C55.1141 13.0633 54.7874 13.12 54.4407 13.12C54.0741 13.12 53.7374 13.06 53.4307 12.94C53.1307 12.82 52.8707 12.6533 52.6507 12.44C52.4307 12.22 52.2607 11.96 52.1407 11.66C52.0207 11.3533 51.9607 11.0167 51.9607 10.65C51.9607 10.2833 52.0207 9.94667 52.1407 9.64C52.2607 9.33333 52.4274 9.07 52.6407 8.85C52.8607 8.63 53.1207 8.46 53.4207 8.34C53.7274 8.21333 54.0674 8.15 54.4407 8.15C54.7874 8.15 55.1174 8.21333 55.4307 8.34C55.7507 8.46 56.0274 8.64667 56.2607 8.9L55.5807 9.52ZM60.405 9.52C60.2383 9.34667 60.0616 9.21667 59.875 9.13C59.695 9.03667 59.4783 8.99 59.225 8.99C58.9783 8.99 58.7616 9.03667 58.575 9.13C58.395 9.21667 58.2416 9.34 58.115 9.5C57.995 9.65333 57.9016 9.83333 57.835 10.04C57.775 10.24 57.745 10.45 57.745 10.67C57.745 10.89 57.7816 11.1 57.855 11.3C57.9283 11.4933 58.0316 11.6633 58.165 11.81C58.2983 11.9567 58.4583 12.0733 58.645 12.16C58.8316 12.24 59.0416 12.28 59.275 12.28C59.5283 12.28 59.745 12.2367 59.925 12.15C60.105 12.0567 60.2716 11.9233 60.425 11.75L61.065 12.39C60.8316 12.65 60.5583 12.8367 60.245 12.95C59.9383 13.0633 59.6116 13.12 59.265 13.12C58.8983 13.12 58.5616 13.06 58.255 12.94C57.955 12.82 57.695 12.6533 57.475 12.44C57.255 12.22 57.085 11.96 56.965 11.66C56.845 11.3533 56.785 11.0167 56.785 10.65C56.785 10.2833 56.845 9.94667 56.965 9.64C57.085 9.33333 57.2516 9.07 57.465 8.85C57.685 8.63 57.945 8.46 58.245 8.34C58.5516 8.21333 58.8916 8.15 59.265 8.15C59.6116 8.15 59.9416 8.21333 60.255 8.34C60.575 8.46 60.8516 8.64667 61.085 8.9L60.405 9.52ZM62.5192 10.96C62.5192 11.1667 62.5625 11.3567 62.6492 11.53C62.7425 11.6967 62.8625 11.84 63.0092 11.96C63.1558 12.08 63.3258 12.1733 63.5192 12.24C63.7125 12.3067 63.9125 12.34 64.1192 12.34C64.3992 12.34 64.6425 12.2767 64.8492 12.15C65.0558 12.0167 65.2458 11.8433 65.4192 11.63L66.0992 12.15C65.5992 12.7967 64.8992 13.12 63.9992 13.12C63.6258 13.12 63.2858 13.0567 62.9792 12.93C62.6792 12.8033 62.4225 12.63 62.2092 12.41C62.0025 12.1833 61.8425 11.92 61.7292 11.62C61.6158 11.3133 61.5592 10.9833 61.5592 10.63C61.5592 10.2767 61.6192 9.95 61.7392 9.65C61.8658 9.34333 62.0358 9.08 62.2492 8.86C62.4692 8.63333 62.7292 8.45667 63.0292 8.33C63.3292 8.20333 63.6558 8.14 64.0092 8.14C64.4292 8.14 64.7825 8.21333 65.0692 8.36C65.3625 8.50667 65.6025 8.7 65.7892 8.94C65.9758 9.17333 66.1092 9.44 66.1892 9.74C66.2758 10.0333 66.3192 10.3333 66.3192 10.64V10.96H62.5192ZM65.3592 10.24C65.3525 10.04 65.3192 9.85667 65.2592 9.69C65.2058 9.52333 65.1225 9.38 65.0092 9.26C64.8958 9.13333 64.7525 9.03667 64.5792 8.97C64.4125 8.89667 64.2158 8.86 63.9892 8.86C63.7692 8.86 63.5658 8.90333 63.3792 8.99C63.1992 9.07 63.0458 9.17667 62.9192 9.31C62.7925 9.44333 62.6925 9.59333 62.6192 9.76C62.5525 9.92 62.5192 10.08 62.5192 10.24H65.3592ZM69.9158 9.45C69.8092 9.31667 69.6758 9.20667 69.5158 9.12C69.3625 9.02667 69.1725 8.98 68.9458 8.98C68.7325 8.98 68.5458 9.02667 68.3858 9.12C68.2325 9.20667 68.1558 9.33667 68.1558 9.51C68.1558 9.65 68.1992 9.76333 68.2858 9.85C68.3792 9.93667 68.4858 10.0067 68.6058 10.06C68.7325 10.1133 68.8658 10.1533 69.0058 10.18C69.1458 10.2067 69.2658 10.23 69.3658 10.25C69.5592 10.2967 69.7392 10.3533 69.9058 10.42C70.0792 10.4867 70.2258 10.5733 70.3458 10.68C70.4725 10.7867 70.5692 10.9167 70.6358 11.07C70.7092 11.2233 70.7458 11.41 70.7458 11.63C70.7458 11.8967 70.6892 12.1267 70.5758 12.32C70.4625 12.5067 70.3158 12.66 70.1358 12.78C69.9558 12.9 69.7492 12.9867 69.5158 13.04C69.2892 13.0933 69.0592 13.12 68.8258 13.12C68.4325 13.12 68.0858 13.06 67.7858 12.94C67.4925 12.82 67.2292 12.6 66.9958 12.28L67.6758 11.72C67.8225 11.8667 67.9858 11.9967 68.1658 12.11C68.3458 12.2233 68.5658 12.28 68.8258 12.28C68.9392 12.28 69.0525 12.27 69.1658 12.25C69.2858 12.2233 69.3892 12.1867 69.4758 12.14C69.5692 12.0867 69.6425 12.0233 69.6958 11.95C69.7558 11.87 69.7858 11.78 69.7858 11.68C69.7858 11.5467 69.7425 11.4367 69.6558 11.35C69.5758 11.2633 69.4758 11.1967 69.3558 11.15C69.2425 11.0967 69.1192 11.0567 68.9858 11.03C68.8592 10.9967 68.7458 10.97 68.6458 10.95C68.4525 10.9033 68.2692 10.85 68.0958 10.79C67.9225 10.73 67.7692 10.65 67.6358 10.55C67.5025 10.45 67.3958 10.3233 67.3158 10.17C67.2358 10.0167 67.1958 9.82667 67.1958 9.6C67.1958 9.35333 67.2458 9.14 67.3458 8.96C67.4525 8.77333 67.5892 8.62 67.7558 8.5C67.9292 8.38 68.1225 8.29 68.3358 8.23C68.5558 8.17 68.7758 8.14 68.9958 8.14C69.3158 8.14 69.6225 8.2 69.9158 8.32C70.2092 8.44 70.4425 8.64 70.6158 8.92L69.9158 9.45ZM74.3592 9.45C74.2525 9.31667 74.1192 9.20667 73.9592 9.12C73.8058 9.02667 73.6158 8.98 73.3892 8.98C73.1758 8.98 72.9892 9.02667 72.8292 9.12C72.6758 9.20667 72.5992 9.33667 72.5992 9.51C72.5992 9.65 72.6425 9.76333 72.7292 9.85C72.8225 9.93667 72.9292 10.0067 73.0492 10.06C73.1758 10.1133 73.3092 10.1533 73.4492 10.18C73.5892 10.2067 73.7092 10.23 73.8092 10.25C74.0025 10.2967 74.1825 10.3533 74.3492 10.42C74.5225 10.4867 74.6692 10.5733 74.7892 10.68C74.9158 10.7867 75.0125 10.9167 75.0792 11.07C75.1525 11.2233 75.1892 11.41 75.1892 11.63C75.1892 11.8967 75.1325 12.1267 75.0192 12.32C74.9058 12.5067 74.7592 12.66 74.5792 12.78C74.3992 12.9 74.1925 12.9867 73.9592 13.04C73.7325 13.0933 73.5025 13.12 73.2692 13.12C72.8758 13.12 72.5292 13.06 72.2292 12.94C71.9358 12.82 71.6725 12.6 71.4392 12.28L72.1192 11.72C72.2658 11.8667 72.4292 11.9967 72.6092 12.11C72.7892 12.2233 73.0092 12.28 73.2692 12.28C73.3825 12.28 73.4958 12.27 73.6092 12.25C73.7292 12.2233 73.8325 12.1867 73.9192 12.14C74.0125 12.0867 74.0858 12.0233 74.1392 11.95C74.1992 11.87 74.2292 11.78 74.2292 11.68C74.2292 11.5467 74.1858 11.4367 74.0992 11.35C74.0192 11.2633 73.9192 11.1967 73.7992 11.15C73.6858 11.0967 73.5625 11.0567 73.4292 11.03C73.3025 10.9967 73.1892 10.97 73.0892 10.95C72.8958 10.9033 72.7125 10.85 72.5392 10.79C72.3658 10.73 72.2125 10.65 72.0792 10.55C71.9458 10.45 71.8392 10.3233 71.7592 10.17C71.6792 10.0167 71.6392 9.82667 71.6392 9.6C71.6392 9.35333 71.6892 9.14 71.7892 8.96C71.8958 8.77333 72.0325 8.62 72.1992 8.5C72.3725 8.38 72.5658 8.29 72.7792 8.23C72.9992 8.17 73.2192 8.14 73.4392 8.14C73.7592 8.14 74.0658 8.2 74.3592 8.32C74.6525 8.44 74.8858 8.64 75.0592 8.92L74.3592 9.45Z" fill="#78A85A"/>
<defs>
<linearGradient id="paint0_linear" x1="56" y1="0" x2="56" y2="19" gradientUnits="userSpaceOnUse">
<stop stop-color="#00FF19"/>
<stop offset="1" stop-color="#8FFF00"/>
</linearGradient>
</defs>
</svg>
