<svg width="112" height="19" viewBox="0 0 112 19" fill="none" xmlns="http://www.w3.org/2000/svg">
<rect width="112" height="19" rx="2" fill="#613D2B"/>
<path d="M38.8713 7.45C38.6713 7.19 38.4179 6.99 38.1113 6.85C37.8046 6.71 37.4879 6.64 37.1613 6.64C36.7613 6.64 36.3979 6.71667 36.0713 6.87C35.7513 7.01667 35.4746 7.22 35.2413 7.48C35.0146 7.74 34.8379 8.04667 34.7113 8.4C34.5846 8.74667 34.5213 9.12 34.5213 9.52C34.5213 9.89333 34.5813 10.2467 34.7013 10.58C34.8213 10.9133 34.9946 11.2067 35.2213 11.46C35.4479 11.7133 35.7246 11.9133 36.0513 12.06C36.3779 12.2067 36.7479 12.28 37.1613 12.28C37.5679 12.28 37.9246 12.1967 38.2313 12.03C38.5379 11.8633 38.7979 11.63 39.0113 11.33L39.8213 11.94C39.7679 12.0133 39.6746 12.12 39.5413 12.26C39.4079 12.3933 39.2313 12.53 39.0113 12.67C38.7913 12.8033 38.5246 12.92 38.2113 13.02C37.9046 13.1267 37.5479 13.18 37.1413 13.18C36.5813 13.18 36.0746 13.0733 35.6213 12.86C35.1746 12.6467 34.7913 12.3667 34.4713 12.02C34.1579 11.6733 33.9179 11.2833 33.7513 10.85C33.5846 10.41 33.5013 9.96667 33.5013 9.52C33.5013 8.97333 33.5913 8.47 33.7713 8.01C33.9513 7.54333 34.2013 7.14333 34.5213 6.81C34.8479 6.47 35.2379 6.20667 35.6913 6.02C36.1446 5.83333 36.6446 5.74 37.1913 5.74C37.6579 5.74 38.1146 5.83 38.5613 6.01C39.0146 6.19 39.3846 6.46667 39.6713 6.84L38.8713 7.45ZM41.4823 10.63C41.4823 10.87 41.5189 11.0933 41.5923 11.3C41.6656 11.5 41.7689 11.6733 41.9023 11.82C42.0356 11.96 42.1989 12.0733 42.3923 12.16C42.5856 12.24 42.8023 12.28 43.0423 12.28C43.2823 12.28 43.4989 12.24 43.6923 12.16C43.8856 12.0733 44.0489 11.96 44.1823 11.82C44.3156 11.6733 44.4189 11.5 44.4923 11.3C44.5656 11.0933 44.6023 10.87 44.6023 10.63C44.6023 10.39 44.5656 10.17 44.4923 9.97C44.4189 9.76333 44.3156 9.59 44.1823 9.45C44.0489 9.30333 43.8856 9.19 43.6923 9.11C43.4989 9.02333 43.2823 8.98 43.0423 8.98C42.8023 8.98 42.5856 9.02333 42.3923 9.11C42.1989 9.19 42.0356 9.30333 41.9023 9.45C41.7689 9.59 41.6656 9.76333 41.5923 9.97C41.5189 10.17 41.4823 10.39 41.4823 10.63ZM40.5223 10.63C40.5223 10.2833 40.5856 9.96 40.7123 9.66C40.8456 9.36 41.0256 9.09667 41.2523 8.87C41.4789 8.64333 41.7456 8.46667 42.0523 8.34C42.3589 8.20667 42.6889 8.14 43.0423 8.14C43.3956 8.14 43.7256 8.20667 44.0323 8.34C44.3389 8.46667 44.6056 8.64333 44.8323 8.87C45.0589 9.09667 45.2356 9.36 45.3623 9.66C45.4956 9.96 45.5623 10.2833 45.5623 10.63C45.5623 10.9767 45.4956 11.3033 45.3623 11.61C45.2356 11.91 45.0589 12.1733 44.8323 12.4C44.6056 12.62 44.3389 12.7967 44.0323 12.93C43.7256 13.0567 43.3956 13.12 43.0423 13.12C42.6889 13.12 42.3589 13.0567 42.0523 12.93C41.7456 12.7967 41.4789 12.62 41.2523 12.4C41.0256 12.1733 40.8456 11.91 40.7123 11.61C40.5856 11.3033 40.5223 10.9767 40.5223 10.63ZM46.6898 8.26H47.5298V9H47.5498C47.5698 8.93333 47.6198 8.85 47.6998 8.75C47.7864 8.65 47.8931 8.55667 48.0198 8.47C48.1531 8.37667 48.3064 8.3 48.4798 8.24C48.6598 8.17333 48.8564 8.14 49.0698 8.14C49.4231 8.14 49.7198 8.21333 49.9598 8.36C50.1998 8.50667 50.3964 8.72667 50.5498 9.02C50.7031 8.72667 50.9198 8.50667 51.1998 8.36C51.4798 8.21333 51.7631 8.14 52.0498 8.14C52.4164 8.14 52.7164 8.2 52.9498 8.32C53.1831 8.44 53.3664 8.6 53.4998 8.8C53.6331 8.99333 53.7231 9.21667 53.7698 9.47C53.8231 9.71667 53.8498 9.97333 53.8498 10.24V13H52.9498V10.36C52.9498 10.18 52.9364 10.0067 52.9098 9.84C52.8898 9.67333 52.8431 9.52667 52.7698 9.4C52.6964 9.27333 52.5931 9.17333 52.4598 9.1C52.3264 9.02 52.1498 8.98 51.9298 8.98C51.4964 8.98 51.1864 9.11333 50.9998 9.38C50.8131 9.64667 50.7198 9.99 50.7198 10.41V13H49.8198V10.52C49.8198 10.2933 49.8064 10.0867 49.7798 9.9C49.7598 9.71333 49.7131 9.55333 49.6398 9.42C49.5731 9.28 49.4731 9.17333 49.3398 9.1C49.2131 9.02 49.0398 8.98 48.8198 8.98C48.6598 8.98 48.5031 9.01333 48.3498 9.08C48.2031 9.14 48.0731 9.23333 47.9598 9.36C47.8464 9.48667 47.7564 9.65 47.6898 9.85C47.6231 10.0433 47.5898 10.2733 47.5898 10.54V13H46.6898V8.26ZM55.2054 8.26H56.1054V8.94H56.1254C56.2987 8.68667 56.5354 8.49 56.8354 8.35C57.1421 8.21 57.4554 8.14 57.7754 8.14C58.1421 8.14 58.4721 8.20333 58.7654 8.33C59.0654 8.45667 59.3187 8.63333 59.5254 8.86C59.7387 9.08667 59.9021 9.35333 60.0154 9.66C60.1287 9.96 60.1854 10.2833 60.1854 10.63C60.1854 10.9833 60.1287 11.3133 60.0154 11.62C59.9021 11.92 59.7387 12.1833 59.5254 12.41C59.3187 12.63 59.0654 12.8033 58.7654 12.93C58.4721 13.0567 58.1421 13.12 57.7754 13.12C57.4354 13.12 57.1154 13.05 56.8154 12.91C56.5154 12.7633 56.2854 12.5667 56.1254 12.32H56.1054V15.82H55.2054V8.26ZM57.6654 8.98C57.4254 8.98 57.2087 9.02333 57.0154 9.11C56.8221 9.19 56.6587 9.30333 56.5254 9.45C56.3921 9.59 56.2887 9.76333 56.2154 9.97C56.1421 10.17 56.1054 10.39 56.1054 10.63C56.1054 10.87 56.1421 11.0933 56.2154 11.3C56.2887 11.5 56.3921 11.6733 56.5254 11.82C56.6587 11.96 56.8221 12.0733 57.0154 12.16C57.2087 12.24 57.4254 12.28 57.6654 12.28C57.9054 12.28 58.1221 12.24 58.3154 12.16C58.5087 12.0733 58.6721 11.96 58.8054 11.82C58.9387 11.6733 59.0421 11.5 59.1154 11.3C59.1887 11.0933 59.2254 10.87 59.2254 10.63C59.2254 10.39 59.1887 10.17 59.1154 9.97C59.0421 9.76333 58.9387 9.59 58.8054 9.45C58.6721 9.30333 58.5087 9.19 58.3154 9.11C58.1221 9.02333 57.9054 8.98 57.6654 8.98ZM61.3887 5.44H62.2887V13H61.3887V5.44ZM64.401 10.96C64.401 11.1667 64.4443 11.3567 64.531 11.53C64.6243 11.6967 64.7443 11.84 64.891 11.96C65.0377 12.08 65.2077 12.1733 65.401 12.24C65.5943 12.3067 65.7943 12.34 66.001 12.34C66.281 12.34 66.5243 12.2767 66.731 12.15C66.9377 12.0167 67.1277 11.8433 67.301 11.63L67.981 12.15C67.481 12.7967 66.781 13.12 65.881 13.12C65.5077 13.12 65.1677 13.0567 64.861 12.93C64.561 12.8033 64.3043 12.63 64.091 12.41C63.8843 12.1833 63.7243 11.92 63.611 11.62C63.4977 11.3133 63.441 10.9833 63.441 10.63C63.441 10.2767 63.501 9.95 63.621 9.65C63.7477 9.34333 63.9177 9.08 64.131 8.86C64.351 8.63333 64.611 8.45667 64.911 8.33C65.211 8.20333 65.5377 8.14 65.891 8.14C66.311 8.14 66.6643 8.21333 66.951 8.36C67.2443 8.50667 67.4843 8.7 67.671 8.94C67.8577 9.17333 67.991 9.44 68.071 9.74C68.1577 10.0333 68.201 10.3333 68.201 10.64V10.96H64.401ZM67.241 10.24C67.2343 10.04 67.201 9.85667 67.141 9.69C67.0877 9.52333 67.0043 9.38 66.891 9.26C66.7777 9.13333 66.6343 9.03667 66.461 8.97C66.2943 8.89667 66.0977 8.86 65.871 8.86C65.651 8.86 65.4477 8.90333 65.261 8.99C65.081 9.07 64.9277 9.17667 64.801 9.31C64.6743 9.44333 64.5743 9.59333 64.501 9.76C64.4343 9.92 64.401 10.08 64.401 10.24H67.241ZM71.8177 9.04H70.5277V11.19C70.5277 11.3233 70.531 11.4567 70.5377 11.59C70.5443 11.7167 70.5677 11.8333 70.6077 11.94C70.6543 12.04 70.721 12.1233 70.8077 12.19C70.901 12.25 71.0343 12.28 71.2077 12.28C71.3143 12.28 71.4243 12.27 71.5377 12.25C71.651 12.23 71.7543 12.1933 71.8477 12.14V12.96C71.741 13.02 71.601 13.06 71.4277 13.08C71.261 13.1067 71.131 13.12 71.0377 13.12C70.691 13.12 70.421 13.0733 70.2277 12.98C70.041 12.88 69.901 12.7533 69.8077 12.6C69.721 12.4467 69.6677 12.2767 69.6477 12.09C69.6343 11.8967 69.6277 11.7033 69.6277 11.51V9.04H68.5877V8.26H69.6277V6.93H70.5277V8.26H71.8177V9.04ZM73.6588 10.96C73.6588 11.1667 73.7022 11.3567 73.7888 11.53C73.8822 11.6967 74.0022 11.84 74.1488 11.96C74.2955 12.08 74.4655 12.1733 74.6588 12.24C74.8522 12.3067 75.0522 12.34 75.2588 12.34C75.5388 12.34 75.7822 12.2767 75.9888 12.15C76.1955 12.0167 76.3855 11.8433 76.5588 11.63L77.2388 12.15C76.7388 12.7967 76.0388 13.12 75.1388 13.12C74.7655 13.12 74.4255 13.0567 74.1188 12.93C73.8188 12.8033 73.5622 12.63 73.3488 12.41C73.1422 12.1833 72.9822 11.92 72.8688 11.62C72.7555 11.3133 72.6988 10.9833 72.6988 10.63C72.6988 10.2767 72.7588 9.95 72.8788 9.65C73.0055 9.34333 73.1755 9.08 73.3888 8.86C73.6088 8.63333 73.8688 8.45667 74.1688 8.33C74.4688 8.20333 74.7955 8.14 75.1488 8.14C75.5688 8.14 75.9222 8.21333 76.2088 8.36C76.5022 8.50667 76.7422 8.7 76.9288 8.94C77.1155 9.17333 77.2488 9.44 77.3288 9.74C77.4155 10.0333 77.4588 10.3333 77.4588 10.64V10.96H73.6588ZM76.4988 10.24C76.4922 10.04 76.4588 9.85667 76.3988 9.69C76.3455 9.52333 76.2622 9.38 76.1488 9.26C76.0355 9.13333 75.8922 9.03667 75.7188 8.97C75.5522 8.89667 75.3555 8.86 75.1288 8.86C74.9088 8.86 74.7055 8.90333 74.5188 8.99C74.3388 9.07 74.1855 9.17667 74.0588 9.31C73.9322 9.44333 73.8322 9.59333 73.7588 9.76C73.6922 9.92 73.6588 10.08 73.6588 10.24H76.4988ZM83.2855 13H82.3855V12.32H82.3655C82.1921 12.5733 81.9521 12.77 81.6455 12.91C81.3455 13.05 81.0355 13.12 80.7155 13.12C80.3488 13.12 80.0155 13.0567 79.7155 12.93C79.4221 12.8033 79.1688 12.6267 78.9555 12.4C78.7488 12.1733 78.5888 11.91 78.4755 11.61C78.3621 11.31 78.3055 10.9833 78.3055 10.63C78.3055 10.2767 78.3621 9.95 78.4755 9.65C78.5888 9.34333 78.7488 9.08 78.9555 8.86C79.1688 8.63333 79.4221 8.45667 79.7155 8.33C80.0155 8.20333 80.3488 8.14 80.7155 8.14C81.0555 8.14 81.3755 8.21333 81.6755 8.36C81.9755 8.5 82.2055 8.69333 82.3655 8.94H82.3855V5.44H83.2855V13ZM80.8255 12.28C81.0655 12.28 81.2821 12.24 81.4755 12.16C81.6688 12.0733 81.8321 11.96 81.9655 11.82C82.0988 11.6733 82.2021 11.5 82.2755 11.3C82.3488 11.0933 82.3855 10.87 82.3855 10.63C82.3855 10.39 82.3488 10.17 82.2755 9.97C82.2021 9.76333 82.0988 9.59 81.9655 9.45C81.8321 9.30333 81.6688 9.19 81.4755 9.11C81.2821 9.02333 81.0655 8.98 80.8255 8.98C80.5855 8.98 80.3688 9.02333 80.1755 9.11C79.9821 9.19 79.8188 9.30333 79.6855 9.45C79.5521 9.59 79.4488 9.76333 79.3755 9.97C79.3021 10.17 79.2655 10.39 79.2655 10.63C79.2655 10.87 79.3021 11.0933 79.3755 11.3C79.4488 11.5 79.5521 11.6733 79.6855 11.82C79.8188 11.96 79.9821 12.0733 80.1755 12.16C80.3688 12.24 80.5855 12.28 80.8255 12.28Z" fill="white"/>
</svg>
