<svg width="112" height="19" viewBox="0 0 112 19" fill="none" xmlns="http://www.w3.org/2000/svg">
<rect opacity="0.1" width="112" height="19" rx="2" fill="url(#paint0_linear)"/>
<path d="M20.219 5.92H21.219L22.779 11.58H22.799L24.469 5.92H25.569L27.239 11.58H27.259L28.819 5.92H29.819L27.759 13H26.749L25.029 7.22H25.009L23.299 13H22.289L20.219 5.92ZM30.0594 8.84C30.3127 8.60667 30.606 8.43333 30.9394 8.32C31.2727 8.2 31.606 8.14 31.9394 8.14C32.286 8.14 32.5827 8.18333 32.8294 8.27C33.0827 8.35667 33.2894 8.47333 33.4494 8.62C33.6094 8.76667 33.726 8.93667 33.7994 9.13C33.8794 9.31667 33.9194 9.51333 33.9194 9.72V12.14C33.9194 12.3067 33.9227 12.46 33.9294 12.6C33.936 12.74 33.946 12.8733 33.9594 13H33.1594C33.1394 12.76 33.1294 12.52 33.1294 12.28H33.1094C32.9094 12.5867 32.6727 12.8033 32.3994 12.93C32.126 13.0567 31.8094 13.12 31.4494 13.12C31.2294 13.12 31.0194 13.09 30.8194 13.03C30.6194 12.97 30.4427 12.88 30.2894 12.76C30.1427 12.64 30.026 12.4933 29.9394 12.32C29.8527 12.14 29.8094 11.9333 29.8094 11.7C29.8094 11.3933 29.876 11.1367 30.0094 10.93C30.1494 10.7233 30.336 10.5567 30.5694 10.43C30.8094 10.2967 31.086 10.2033 31.3994 10.15C31.7194 10.09 32.0594 10.06 32.4194 10.06H33.0794V9.86C33.0794 9.74 33.056 9.62 33.0094 9.5C32.9627 9.38 32.8927 9.27333 32.7994 9.18C32.706 9.08 32.5894 9.00333 32.4494 8.95C32.3094 8.89 32.1427 8.86 31.9494 8.86C31.776 8.86 31.6227 8.87667 31.4894 8.91C31.3627 8.94333 31.246 8.98667 31.1394 9.04C31.0327 9.08667 30.936 9.14333 30.8494 9.21C30.7627 9.27667 30.6794 9.34 30.5994 9.4L30.0594 8.84ZM32.5994 10.72C32.386 10.72 32.166 10.7333 31.9394 10.76C31.7194 10.78 31.516 10.8233 31.3294 10.89C31.1494 10.9567 30.9994 11.05 30.8794 11.17C30.766 11.29 30.7094 11.4433 30.7094 11.63C30.7094 11.9033 30.7994 12.1 30.9794 12.22C31.166 12.34 31.416 12.4 31.7294 12.4C31.976 12.4 32.186 12.36 32.3594 12.28C32.5327 12.1933 32.6727 12.0833 32.7794 11.95C32.886 11.8167 32.9627 11.67 33.0094 11.51C33.056 11.3433 33.0794 11.18 33.0794 11.02V10.72H32.5994ZM35.2949 8.26H36.1949V13H35.2949V8.26ZM35.0849 6.56C35.0849 6.38 35.1483 6.22667 35.2749 6.1C35.4083 5.96667 35.5649 5.9 35.7449 5.9C35.9249 5.9 36.0783 5.96667 36.2049 6.1C36.3383 6.22667 36.4049 6.38 36.4049 6.56C36.4049 6.74 36.3383 6.89667 36.2049 7.03C36.0783 7.15667 35.9249 7.22 35.7449 7.22C35.5649 7.22 35.4083 7.15667 35.2749 7.03C35.1483 6.89667 35.0849 6.74 35.0849 6.56ZM40.1673 9.04H38.8773V11.19C38.8773 11.3233 38.8806 11.4567 38.8873 11.59C38.8939 11.7167 38.9173 11.8333 38.9573 11.94C39.0039 12.04 39.0706 12.1233 39.1573 12.19C39.2506 12.25 39.3839 12.28 39.5573 12.28C39.6639 12.28 39.7739 12.27 39.8873 12.25C40.0006 12.23 40.1039 12.1933 40.1973 12.14V12.96C40.0906 13.02 39.9506 13.06 39.7773 13.08C39.6106 13.1067 39.4806 13.12 39.3873 13.12C39.0406 13.12 38.7706 13.0733 38.5773 12.98C38.3906 12.88 38.2506 12.7533 38.1573 12.6C38.0706 12.4467 38.0173 12.2767 37.9973 12.09C37.9839 11.8967 37.9773 11.7033 37.9773 11.51V9.04H36.9373V8.26H37.9773V6.93H38.8773V8.26H40.1673V9.04ZM41.3984 8.26H42.2984V13H41.3984V8.26ZM41.1884 6.56C41.1884 6.38 41.2518 6.22667 41.3784 6.1C41.5118 5.96667 41.6684 5.9 41.8484 5.9C42.0284 5.9 42.1818 5.96667 42.3084 6.1C42.4418 6.22667 42.5084 6.38 42.5084 6.56C42.5084 6.74 42.4418 6.89667 42.3084 7.03C42.1818 7.15667 42.0284 7.22 41.8484 7.22C41.6684 7.22 41.5118 7.15667 41.3784 7.03C41.2518 6.89667 41.1884 6.74 41.1884 6.56ZM43.7308 8.26H44.6308V8.99H44.6508C44.7641 8.73667 44.9608 8.53333 45.2408 8.38C45.5208 8.22 45.8441 8.14 46.2108 8.14C46.4374 8.14 46.6541 8.17667 46.8608 8.25C47.0741 8.31667 47.2574 8.42333 47.4108 8.57C47.5708 8.71667 47.6974 8.90667 47.7908 9.14C47.8841 9.36667 47.9308 9.63667 47.9308 9.95V13H47.0308V10.2C47.0308 9.98 47.0008 9.79333 46.9408 9.64C46.8808 9.48 46.8008 9.35333 46.7008 9.26C46.6008 9.16 46.4841 9.09 46.3508 9.05C46.2241 9.00333 46.0908 8.98 45.9508 8.98C45.7641 8.98 45.5908 9.01 45.4308 9.07C45.2708 9.13 45.1308 9.22667 45.0108 9.36C44.8908 9.48667 44.7974 9.65 44.7308 9.85C44.6641 10.05 44.6308 10.2867 44.6308 10.56V13H43.7308V8.26ZM54.0374 12.96C54.0374 13.32 53.9741 13.6467 53.8474 13.94C53.7274 14.24 53.5541 14.4967 53.3274 14.71C53.1008 14.93 52.8274 15.1 52.5074 15.22C52.1874 15.34 51.8341 15.4 51.4474 15.4C50.9941 15.4 50.5774 15.3367 50.1974 15.21C49.8241 15.0833 49.4674 14.8633 49.1274 14.55L49.7374 13.79C49.9708 14.0433 50.2241 14.2333 50.4974 14.36C50.7708 14.4933 51.0808 14.56 51.4274 14.56C51.7608 14.56 52.0374 14.51 52.2574 14.41C52.4774 14.3167 52.6508 14.1933 52.7774 14.04C52.9108 13.8867 53.0041 13.71 53.0574 13.51C53.1108 13.3167 53.1374 13.12 53.1374 12.92V12.22H53.1074C52.9341 12.5067 52.6974 12.72 52.3974 12.86C52.1041 12.9933 51.7941 13.06 51.4674 13.06C51.1208 13.06 50.7974 13 50.4974 12.88C50.2041 12.7533 49.9508 12.5833 49.7374 12.37C49.5241 12.15 49.3574 11.8933 49.2374 11.6C49.1174 11.3 49.0574 10.9767 49.0574 10.63C49.0574 10.2833 49.1141 9.96 49.2274 9.66C49.3408 9.35333 49.5008 9.08667 49.7074 8.86C49.9208 8.63333 50.1741 8.45667 50.4674 8.33C50.7674 8.20333 51.1008 8.14 51.4674 8.14C51.7874 8.14 52.0974 8.21 52.3974 8.35C52.7041 8.49 52.9441 8.68667 53.1174 8.94H53.1374V8.26H54.0374V12.96ZM51.5774 8.98C51.3374 8.98 51.1208 9.02333 50.9274 9.11C50.7341 9.19 50.5708 9.30333 50.4374 9.45C50.3041 9.59 50.2008 9.76333 50.1274 9.97C50.0541 10.17 50.0174 10.39 50.0174 10.63C50.0174 11.11 50.1574 11.4967 50.4374 11.79C50.7174 12.0767 51.0974 12.22 51.5774 12.22C52.0574 12.22 52.4374 12.0767 52.7174 11.79C52.9974 11.4967 53.1374 11.11 53.1374 10.63C53.1374 10.39 53.1008 10.17 53.0274 9.97C52.9541 9.76333 52.8508 9.59 52.7174 9.45C52.5841 9.30333 52.4208 9.19 52.2274 9.11C52.0341 9.02333 51.8174 8.98 51.5774 8.98ZM60.6339 5.92H61.5039L64.5339 13H63.4139L62.7039 11.25H59.3339L58.6339 13H57.5139L60.6339 5.92ZM62.3539 10.41L61.0339 7.16H61.0139L59.6739 10.41H62.3539ZM65.2249 8.26H66.1249V8.94H66.1449C66.3183 8.68667 66.5549 8.49 66.8549 8.35C67.1616 8.21 67.4749 8.14 67.7949 8.14C68.1616 8.14 68.4916 8.20333 68.7849 8.33C69.0849 8.45667 69.3383 8.63333 69.5449 8.86C69.7583 9.08667 69.9216 9.35333 70.0349 9.66C70.1483 9.96 70.2049 10.2833 70.2049 10.63C70.2049 10.9833 70.1483 11.3133 70.0349 11.62C69.9216 11.92 69.7583 12.1833 69.5449 12.41C69.3383 12.63 69.0849 12.8033 68.7849 12.93C68.4916 13.0567 68.1616 13.12 67.7949 13.12C67.4549 13.12 67.1349 13.05 66.8349 12.91C66.5349 12.7633 66.3049 12.5667 66.1449 12.32H66.1249V15.82H65.2249V8.26ZM67.6849 8.98C67.4449 8.98 67.2283 9.02333 67.0349 9.11C66.8416 9.19 66.6783 9.30333 66.5449 9.45C66.4116 9.59 66.3083 9.76333 66.2349 9.97C66.1616 10.17 66.1249 10.39 66.1249 10.63C66.1249 10.87 66.1616 11.0933 66.2349 11.3C66.3083 11.5 66.4116 11.6733 66.5449 11.82C66.6783 11.96 66.8416 12.0733 67.0349 12.16C67.2283 12.24 67.4449 12.28 67.6849 12.28C67.9249 12.28 68.1416 12.24 68.3349 12.16C68.5283 12.0733 68.6916 11.96 68.8249 11.82C68.9583 11.6733 69.0616 11.5 69.1349 11.3C69.2083 11.0933 69.2449 10.87 69.2449 10.63C69.2449 10.39 69.2083 10.17 69.1349 9.97C69.0616 9.76333 68.9583 9.59 68.8249 9.45C68.6916 9.30333 68.5283 9.19 68.3349 9.11C68.1416 9.02333 67.9249 8.98 67.6849 8.98ZM71.3382 8.26H72.2382V8.94H72.2582C72.4315 8.68667 72.6682 8.49 72.9682 8.35C73.2749 8.21 73.5882 8.14 73.9082 8.14C74.2749 8.14 74.6049 8.20333 74.8982 8.33C75.1982 8.45667 75.4515 8.63333 75.6582 8.86C75.8715 9.08667 76.0349 9.35333 76.1482 9.66C76.2615 9.96 76.3182 10.2833 76.3182 10.63C76.3182 10.9833 76.2615 11.3133 76.1482 11.62C76.0349 11.92 75.8715 12.1833 75.6582 12.41C75.4515 12.63 75.1982 12.8033 74.8982 12.93C74.6049 13.0567 74.2749 13.12 73.9082 13.12C73.5682 13.12 73.2482 13.05 72.9482 12.91C72.6482 12.7633 72.4182 12.5667 72.2582 12.32H72.2382V15.82H71.3382V8.26ZM73.7982 8.98C73.5582 8.98 73.3415 9.02333 73.1482 9.11C72.9549 9.19 72.7915 9.30333 72.6582 9.45C72.5249 9.59 72.4215 9.76333 72.3482 9.97C72.2749 10.17 72.2382 10.39 72.2382 10.63C72.2382 10.87 72.2749 11.0933 72.3482 11.3C72.4215 11.5 72.5249 11.6733 72.6582 11.82C72.7915 11.96 72.9549 12.0733 73.1482 12.16C73.3415 12.24 73.5582 12.28 73.7982 12.28C74.0382 12.28 74.2549 12.24 74.4482 12.16C74.6415 12.0733 74.8049 11.96 74.9382 11.82C75.0715 11.6733 75.1749 11.5 75.2482 11.3C75.3215 11.0933 75.3582 10.87 75.3582 10.63C75.3582 10.39 75.3215 10.17 75.2482 9.97C75.1749 9.76333 75.0715 9.59 74.9382 9.45C74.8049 9.30333 74.6415 9.19 74.4482 9.11C74.2549 9.02333 74.0382 8.98 73.7982 8.98ZM77.4515 8.26H78.3515V8.99H78.3715C78.4315 8.86333 78.5115 8.75 78.6115 8.65C78.7115 8.54333 78.8215 8.45333 78.9415 8.38C79.0682 8.30667 79.2048 8.25 79.3515 8.21C79.4982 8.16333 79.6448 8.14 79.7915 8.14C79.9382 8.14 80.0715 8.16 80.1915 8.2L80.1515 9.17C80.0782 9.15 80.0048 9.13333 79.9315 9.12C79.8582 9.10667 79.7848 9.1 79.7115 9.1C79.2715 9.1 78.9348 9.22333 78.7015 9.47C78.4682 9.71667 78.3515 10.1 78.3515 10.62V13H77.4515V8.26ZM81.7069 10.63C81.7069 10.87 81.7435 11.0933 81.8169 11.3C81.8902 11.5 81.9935 11.6733 82.1269 11.82C82.2602 11.96 82.4235 12.0733 82.6169 12.16C82.8102 12.24 83.0269 12.28 83.2669 12.28C83.5069 12.28 83.7235 12.24 83.9169 12.16C84.1102 12.0733 84.2735 11.96 84.4069 11.82C84.5402 11.6733 84.6435 11.5 84.7169 11.3C84.7902 11.0933 84.8269 10.87 84.8269 10.63C84.8269 10.39 84.7902 10.17 84.7169 9.97C84.6435 9.76333 84.5402 9.59 84.4069 9.45C84.2735 9.30333 84.1102 9.19 83.9169 9.11C83.7235 9.02333 83.5069 8.98 83.2669 8.98C83.0269 8.98 82.8102 9.02333 82.6169 9.11C82.4235 9.19 82.2602 9.30333 82.1269 9.45C81.9935 9.59 81.8902 9.76333 81.8169 9.97C81.7435 10.17 81.7069 10.39 81.7069 10.63ZM80.7469 10.63C80.7469 10.2833 80.8102 9.96 80.9369 9.66C81.0702 9.36 81.2502 9.09667 81.4769 8.87C81.7035 8.64333 81.9702 8.46667 82.2769 8.34C82.5835 8.20667 82.9135 8.14 83.2669 8.14C83.6202 8.14 83.9502 8.20667 84.2569 8.34C84.5635 8.46667 84.8302 8.64333 85.0569 8.87C85.2835 9.09667 85.4602 9.36 85.5869 9.66C85.7202 9.96 85.7869 10.2833 85.7869 10.63C85.7869 10.9767 85.7202 11.3033 85.5869 11.61C85.4602 11.91 85.2835 12.1733 85.0569 12.4C84.8302 12.62 84.5635 12.7967 84.2569 12.93C83.9502 13.0567 83.6202 13.12 83.2669 13.12C82.9135 13.12 82.5835 13.0567 82.2769 12.93C81.9702 12.7967 81.7035 12.62 81.4769 12.4C81.2502 12.1733 81.0702 11.91 80.9369 11.61C80.8102 11.3033 80.7469 10.9767 80.7469 10.63ZM86.3444 8.26H87.3844L88.8044 11.89L90.1644 8.26H91.1244L89.2644 13H88.2744L86.3444 8.26ZM92.5944 10.96C92.5944 11.1667 92.6377 11.3567 92.7244 11.53C92.8177 11.6967 92.9377 11.84 93.0844 11.96C93.231 12.08 93.401 12.1733 93.5944 12.24C93.7877 12.3067 93.9877 12.34 94.1944 12.34C94.4744 12.34 94.7177 12.2767 94.9244 12.15C95.131 12.0167 95.321 11.8433 95.4944 11.63L96.1744 12.15C95.6744 12.7967 94.9744 13.12 94.0744 13.12C93.701 13.12 93.361 13.0567 93.0544 12.93C92.7544 12.8033 92.4977 12.63 92.2844 12.41C92.0777 12.1833 91.9177 11.92 91.8044 11.62C91.691 11.3133 91.6344 10.9833 91.6344 10.63C91.6344 10.2767 91.6944 9.95 91.8144 9.65C91.941 9.34333 92.111 9.08 92.3244 8.86C92.5444 8.63333 92.8044 8.45667 93.1044 8.33C93.4044 8.20333 93.731 8.14 94.0844 8.14C94.5044 8.14 94.8577 8.21333 95.1444 8.36C95.4377 8.50667 95.6777 8.7 95.8644 8.94C96.051 9.17333 96.1844 9.44 96.2644 9.74C96.351 10.0333 96.3944 10.3333 96.3944 10.64V10.96H92.5944ZM95.4344 10.24C95.4277 10.04 95.3944 9.85667 95.3344 9.69C95.281 9.52333 95.1977 9.38 95.0844 9.26C94.971 9.13333 94.8277 9.03667 94.6544 8.97C94.4877 8.89667 94.291 8.86 94.0644 8.86C93.8444 8.86 93.641 8.90333 93.4544 8.99C93.2744 9.07 93.121 9.17667 92.9944 9.31C92.8677 9.44333 92.7677 9.59333 92.6944 9.76C92.6277 9.92 92.5944 10.08 92.5944 10.24H95.4344Z" fill="#FF9900"/>
<defs>
<linearGradient id="paint0_linear" x1="56" y1="0" x2="56" y2="19" gradientUnits="userSpaceOnUse">
<stop stop-color="#FF9900"/>
<stop offset="1" stop-color="#FF9900"/>
</linearGradient>
</defs>
</svg>
